# xmcd
#
# Track frame offsets:
#   150
#   11630
#   26567
#   49550
#   62887
#   78667
#   91110
#   104820
#   119482
#   135160
#   147977
#   163402
#   180980
#   200635
#   215015
#   232692
#   243490
#
# Disc length: 3494 seconds
#
# Revision: 0
# Processed by: cddbd v1.5.2PL0 Copyright (c) Steve Scherf et al.
# Submitted via: uFREEDB ActiveX Control 1.5
#
DISCID=ed0da411
DTITLE=Brasas - Super
DYEAR=1999
DGENRE=super
TTITLE0=01-Caí no laço
TTITLE1=02-Mulher,cachaça e viola
TTITLE2=03-Perguntas sem respostas
TTITLE3=04-Fandango da Berenice
TTITLE4=05-Mulher,mulher
TTITLE5=06-O campeão
TTITLE6=07-O velho jura que quer
TTITLE7=08-Nóis não vive sem mulé
TTITLE8=09-Tá duro
TTITLE9=10-Amor com você
TTITLE10=11-Todo tempo é pouco pra te amar
TTITLE11=12-A saudade dói
TTITLE12=13-Vanerão apaixonado
TTITLE13=14-Na porta da escola
TTITLE14=15-Minha Maria
TTITLE15=16-Beijo gostoso
TTITLE16=17-pout-pourri
EXTD=
EXTT0=
EXTT1=
EXTT2=
EXTT3=
EXTT4=
EXTT5=
EXTT6=
EXTT7=
EXTT8=
EXTT9=
EXTT10=
EXTT11=
EXTT12=
EXTT13=
EXTT14=
EXTT15=
EXTT16=
PLAYORDER=
